<svg width="154" height="33" viewBox="0 0 154 33" fill="none" xmlns="http://www.w3.org/2000/svg">
<path d="M32.4692 32.4206H23.0293L21.4762 26.4267H11.09L9.48837 32.4206H0L10.4105 0.364H21.9373L32.4692 32.4206ZM12.8857 19.365H19.6805C17.6744 11.7937 16.5258 7.21536 16.2346 5.62992C15.911 7.63599 14.7947 12.2144 12.8857 19.365ZM44.3493 7.44994V14.8028H45.9024C47.2128 14.8028 48.2482 14.4388 49.0086 13.7108C49.7689 12.9828 50.1491 11.9798 50.1491 10.7017C50.1491 8.53387 48.9519 7.44994 46.5576 7.44994H44.3493ZM46.776 0.485336C50.772 0.485336 53.7891 1.35895 55.8276 3.10616C57.866 4.85338 58.8852 7.44186 58.8852 10.8716C58.8852 14.2851 57.8336 16.9707 55.7305 18.9282C53.6112 20.8696 50.6264 21.8402 46.776 21.8402H44.3493V32.4206H35.7103V0.485336H46.776ZM78.1462 7.06168C73.8267 7.06168 71.6669 10.1678 71.6669 16.3802C71.6669 22.5763 73.8105 25.6744 78.0977 25.6744C80.2979 25.6744 81.9238 24.9221 82.9753 23.4176C84.0269 21.913 84.5527 19.5753 84.5527 16.4044C84.5527 13.2336 84.0188 10.8878 82.9511 9.36703C81.8995 7.83013 80.2979 7.06168 78.1462 7.06168ZM62.5911 16.4044C62.5911 11.0657 63.9177 6.99696 66.5709 4.19818C69.2241 1.39939 73.0825 -4.76837e-06 78.1462 -4.76837e-06C83.2261 -4.76837e-06 87.0764 1.3913 89.6973 4.17391C92.3181 6.94034 93.6285 11.0172 93.6285 16.4044C93.6285 21.7917 92.31 25.8847 89.673 28.6835C87.0522 31.4661 83.2099 32.8574 78.1462 32.8574C73.0987 32.8574 69.2402 31.4499 66.5709 28.635C63.9177 25.82 62.5911 21.7432 62.5911 16.4044ZM120.126 32.4206H99.2078V0.485336H107.847V25.456H120.126V32.4206ZM138.503 7.06168C134.184 7.06168 132.024 10.1678 132.024 16.3802C132.024 22.5763 134.167 25.6744 138.455 25.6744C140.655 25.6744 142.281 24.9221 143.332 23.4176C144.384 21.913 144.91 19.5753 144.91 16.4044C144.91 13.2336 144.376 10.8878 143.308 9.36703C142.256 7.83013 140.655 7.06168 138.503 7.06168ZM122.948 16.4044C122.948 11.0657 124.275 6.99696 126.928 4.19818C129.581 1.39939 133.439 -4.76837e-06 138.503 -4.76837e-06C143.583 -4.76837e-06 147.433 1.3913 150.054 4.17391C152.675 6.94034 153.985 11.0172 153.985 16.4044C153.985 21.7917 152.667 25.8847 150.03 28.6835C147.409 31.4661 143.567 32.8574 138.503 32.8574C133.456 32.8574 129.597 31.4499 126.928 28.635C124.275 25.82 122.948 21.7432 122.948 16.4044Z" fill="url(#paint0_linear_6_130)"/>
<defs>
<linearGradient id="paint0_linear_6_130" x1="0" y1="22.9206" x2="157" y2="22.9206" gradientUnits="userSpaceOnUse">
<stop stop-color="#0074E4"/>
<stop offset="1" stop-color="#5522FA"/>
</linearGradient>
</defs>
</svg>
